<?xml version="1.0" encoding="UTF-8" standalone="no"?>
<svg
   id="custom-logo"
   width="512"
   height="512"
   viewBox="0 0 512 512"
   fill="none"
   style="height:100%;width:100%;"
   version="1.1"
   sodipodi:docname="icon.svg"
   inkscape:version="1.3 (0e150ed6c4, 2023-07-21)"
   xml:space="preserve"
   inkscape:export-filename="icon-add.png"
   inkscape:export-xdpi="48"
   inkscape:export-ydpi="48"
   xmlns:inkscape="http://www.inkscape.org/namespaces/inkscape"
   xmlns:sodipodi="http://sodipodi.sourceforge.net/DTD/sodipodi-0.dtd"
   xmlns="http://www.w3.org/2000/svg"
   xmlns:svg="http://www.w3.org/2000/svg"><sodipodi:namedview
     id="namedview25"
     pagecolor="#ffffff"
     bordercolor="#666666"
     borderopacity="1.0"
     inkscape:showpageshadow="2"
     inkscape:pageopacity="0.0"
     inkscape:pagecheckerboard="0"
     inkscape:deskcolor="#d1d1d1"
     inkscape:zoom="1.1542969"
     inkscape:cx="256"
     inkscape:cy="256"
     inkscape:window-width="1523"
     inkscape:window-height="773"
     inkscape:window-x="0"
     inkscape:window-y="91"
     inkscape:window-maximized="0"
     inkscape:current-layer="custom-logo" /><defs
     id="defs17"><radialGradient
       id="b"
       cx="0"
       cy="0"
       r="1"
       gradientUnits="userSpaceOnUse"
       gradientTransform="matrix(-48 -185 123 -32 179 429.7)"><stop
         stop-color="#fff"
         stop-opacity=".4"
         id="stop1" /><stop
         offset="1"
         stop-opacity=".1"
         id="stop2" /></radialGradient><radialGradient
       id="c"
       cx="0"
       cy="0"
       r="1"
       gradientUnits="userSpaceOnUse"
       gradientTransform="matrix(41 -310 229 30 341.6 351.3)"><stop
         stop-color="#fff"
         stop-opacity=".6"
         id="stop3" /><stop
         offset="1"
         stop-color="#fff"
         stop-opacity=".1"
         id="stop4" /></radialGradient><radialGradient
       id="d"
       cx="0"
       cy="0"
       r="1"
       gradientUnits="userSpaceOnUse"
       gradientTransform="matrix(57 -261 178 39 190.5 296.3)"><stop
         stop-color="#fff"
         stop-opacity=".8"
         id="stop5" /><stop
         offset="1"
         stop-color="#fff"
         stop-opacity=".4"
         id="stop6" /></radialGradient><radialGradient
       id="e"
       cx="0"
       cy="0"
       r="1"
       gradientUnits="userSpaceOnUse"
       gradientTransform="matrix(-79 -133 153 -90 321.4 464.2)"><stop
         stop-color="#fff"
         stop-opacity=".3"
         id="stop7" /><stop
         offset="1"
         stop-opacity=".3"
         id="stop8" /></radialGradient><radialGradient
       id="f"
       cx="0"
       cy="0"
       r="1"
       gradientUnits="userSpaceOnUse"
       gradientTransform="matrix(-29 136 -92 -20 300.7 149.9)"><stop
         stop-color="#fff"
         stop-opacity="0"
         id="stop9" /><stop
         offset="1"
         stop-color="#fff"
         stop-opacity=".2"
         id="stop10" /></radialGradient><radialGradient
       id="g"
       cx="0"
       cy="0"
       r="1"
       gradientUnits="userSpaceOnUse"
       gradientTransform="matrix(72 73 -155 153 137.8 225.2)"><stop
         stop-color="#fff"
         stop-opacity=".2"
         id="stop11" /><stop
         offset="1"
         stop-color="#fff"
         stop-opacity=".4"
         id="stop12" /></radialGradient><radialGradient
       id="h"
       cx="0"
       cy="0"
       r="1"
       gradientUnits="userSpaceOnUse"
       gradientTransform="matrix(20 118 -251 43 215.1 273.7)"><stop
         stop-color="#fff"
         stop-opacity=".1"
         id="stop13" /><stop
         offset="1"
         stop-color="#fff"
         stop-opacity=".3"
         id="stop14" /></radialGradient><radialGradient
       id="i"
       cx="0"
       cy="0"
       r="1"
       gradientUnits="userSpaceOnUse"
       gradientTransform="matrix(-162 -85 268 -510 374.4 371.7)"><stop
         stop-color="#fff"
         stop-opacity=".2"
         id="stop15" /><stop
         offset=".5"
         stop-color="#fff"
         stop-opacity=".2"
         id="stop16" /><stop
         offset="1"
         stop-color="#fff"
         stop-opacity=".3"
         id="stop17" /></radialGradient><filter
       id="a"
       x="80.1"
       y="37"
       width="351.1"
       height="443.2"
       filterUnits="userSpaceOnUse"
       color-interpolation-filters="sRGB"><feFlood
         flood-opacity="0"
         result="BackgroundImageFix"
         id="feFlood17" /><feBlend
         in="SourceGraphic"
         in2="BackgroundImageFix"
         result="shape"
         id="feBlend17" /><feGaussianBlur
         stdDeviation="6.5"
         result="effect1_foregroundBlur_744_9191"
         id="feGaussianBlur17" /></filter></defs><g
     filter="url(#a)"
     id="g17"
     style="display:inline"><path
       d="m 359.2,437.5 c -2.6,19 -21.3,33.9 -40,28.7 C 292.7,459 262,447.6 234.4,445.5 L 192,442.3 A 28,28 0 0 1 174,434 l -73,-74.8 a 27.7,27.7 0 0 1 -5.4,-30.7 c 0,0 45,-98.6 46.8,-103.7 1.6,-5.1 7.8,-49.9 11.4,-73.9 a 28,28 0 0 1 9,-16.5 L 249,57.2 a 28,28 0 0 1 40.6,3.4 l 72.6,91.6 a 29.5,29.5 0 0 1 6.2,18.3 c 0,17.3 1.5,53 11.2,76 a 301.3,301.3 0 0 0 35.6,58.2 14,14 0 0 1 1,15.6 c -6.3,10.7 -18.9,31.3 -36.6,57.6 a 142.2,142.2 0 0 0 -20.5,59.6 z"
       fill="#000000"
       fill-opacity="0.3"
       id="path17" /></g><path
     id="arrow"
     d="M359.9 434.3c-2.6 19.1-21.3 34-40 28.9-26.4-7.3-57-18.7-84.7-20.8l-42.3-3.2a27.9 27.9 0 0 1-18-8.4l-73-75a27.9 27.9 0 0 1-5.4-31s45.1-99 46.8-104.2c1.7-5.1 7.8-50 11.4-74.2a28 28 0 0 1 9-16.6l86.2-77.5a28 28 0 0 1 40.6 3.5l72.5 92a29.7 29.7 0 0 1 6.2 18.3c0 17.4 1.5 53.2 11.1 76.3a303 303 0 0 0 35.6 58.5 14 14 0 0 1 1.1 15.7c-6.4 10.8-18.9 31.4-36.7 57.9a143.3 143.3 0 0 0-20.4 59.8Z"
     fill="#6C31E3" /><path
     d="M182.7 436.4c33.9-68.7 33-118 18.5-153-13.2-32.4-37.9-52.8-57.3-65.5-.4 1.9-1 3.7-1.8 5.4L96.5 324.8a27.9 27.9 0 0 0 5.5 31l72.9 75c2.3 2.3 5 4.2 7.8 5.6Z"
     fill="url(#b)"
     id="path18" /><path
     d="M274.9 297c9.1.9 18 2.9 26.8 6.1 27.8 10.4 53.1 33.8 74 78.9 1.5-2.6 3-5.1 4.6-7.5a1222 1222 0 0 0 36.7-57.9 14 14 0 0 0-1-15.7 303 303 0 0 1-35.7-58.5c-9.6-23-11-58.9-11.1-76.3 0-6.6-2.1-13.1-6.2-18.3l-72.5-92-1.2-1.5c5.3 17.5 5 31.5 1.7 44.2-3 11.8-8.6 22.5-14.5 33.8-2 3.8-4 7.7-5.9 11.7a140 140 0 0 0-15.8 58c-1 24.2 3.9 54.5 20 95Z"
     fill="url(#c)"
     id="path19" /><path
     d="M274.8 297c-16.1-40.5-21-70.8-20-95 1-24 8-42 15.8-58l6-11.7c5.8-11.3 11.3-22 14.4-33.8a78.5 78.5 0 0 0-1.7-44.2 28 28 0 0 0-39.4-2l-86.2 77.5a28 28 0 0 0-9 16.6L144.2 216c0 .7-.2 1.3-.3 2 19.4 12.6 44 33 57.3 65.3 2.6 6.4 4.8 13.1 6.4 20.4a200 200 0 0 1 67.2-6.8Z"
     fill="url(#d)"
     id="path20" /><path
     d="M320 463.2c18.6 5.1 37.3-9.8 39.9-29a153 153 0 0 1 15.9-52.2c-21-45.1-46.3-68.5-74-78.9-29.5-11-61.6-7.3-94.2.6 7.3 33.1 3 76.4-24.8 132.7 3.1 1.6 6.6 2.5 10.1 2.8l43.9 3.3c23.8 1.7 59.3 14 83.2 20.7Z"
     fill="url(#e)"
     id="path21" /><path
     fill-rule="evenodd"
     clip-rule="evenodd"
     d="M255 200.5c-1.1 24 1.9 51.4 18 91.8l-5-.5c-14.5-42.1-17.7-63.7-16.6-88 1-24.3 8.9-43 16.7-59 2-4 6.6-11.5 8.6-15.3 5.8-11.3 9.7-17.2 13-27.5 4.8-14.4 3.8-21.2 3.2-28 3.7 24.5-10.4 45.8-21 67.5a145 145 0 0 0-17 59Z"
     fill="url(#f)"
     id="path22" /><path
     fill-rule="evenodd"
     clip-rule="evenodd"
     d="M206 285.1c2 4.4 3.7 8 4.9 13.5l-4.3 1c-1.7-6.4-3-11-5.5-16.5-14.6-34.3-38-52-57-65 23 12.4 46.7 31.9 61.9 67Z"
     fill="url(#g)"
     id="path23" /><path
     fill-rule="evenodd"
     clip-rule="evenodd"
     d="M211.1 303c8 37.5-1 85.2-27.5 131.6 22.2-46 33-90.1 24-131l3.5-.7Z"
     fill="url(#h)"
     id="path24" /><path
     fill-rule="evenodd"
     clip-rule="evenodd"
     d="M302.7 299.5c43.5 16.3 60.3 52 72.8 81.9-15.5-31.2-37-65.7-74.4-78.5-28.4-9.8-52.4-8.6-93.5.7l-.9-4c43.6-10 66.4-11.2 96 0Z"
     fill="url(#i)"
     id="path25" /><g
     id="g25"
     transform="matrix(4.2300515,0,0,4.2300515,255.87824,216.95892)"
     style="display:inline"><circle
       fill="#4caf50"
       cx="24"
       cy="24"
       r="21"
       id="circle1" /><g
       fill="#ffffff"
       id="g2"
       transform="matrix(1.3853382,0,0,1.3853382,-9.2481168,-9.2481168)"><rect
         x="21"
         y="14"
         width="6"
         height="20"
         id="rect1" /><rect
         x="14"
         y="21"
         width="20"
         height="6"
         id="rect2" /></g></g></svg>
